<svg id="Слой_1" data-name="Слой 1" xmlns="http://www.w3.org/2000/svg" viewBox="0 0 40 40"><title>Mouse_Left_Click</title><path d="M9.5,20.5V14A9.51,9.51,0,0,1,19,4.5h4A9.51,9.51,0,0,1,32.5,14v6.5Z" fill="#e1ebf2"/><path d="M23,5a9,9,0,0,1,9,9v6H10V14a9,9,0,0,1,9-9h4m0-1H19A10,10,0,0,0,9,14v7H33V14A10,10,0,0,0,23,4Z" fill="#a3b7cc"/><rect x="20" y="4" width="2" height="17" fill="#5e9c76"/><path d="M9.5,20.5V14A9.51,9.51,0,0,1,19,4.5h1.5v16Z" fill="#bae0bd"/><path d="M20,5V20H10V14a9,9,0,0,1,9-9h1m1-1H19A10,10,0,0,0,9,14v7H21V4Z" fill="#5e9c76"/><path d="M19,38.5A9.51,9.51,0,0,1,9.5,29V19.5h23V29A9.51,9.51,0,0,1,23,38.5Z" fill="#b0c1d4"/><path d="M32,20v9a9,9,0,0,1-9,9H19a9,9,0,0,1-9-9V20H32m1-1H9V29A10,10,0,0,0,19,39h4A10,10,0,0,0,33,29V19Z" fill="#66798f"/><rect x="19" y="7" width="4" height="10" rx="1.5" ry="1.5" fill="#66798f"/><path d="M15,1C9.6,1,5,5.28,5,12" fill="none" stroke="#5e9c76" stroke-miterlimit="10" stroke-width="2"/></svg>